<svg width="16" height="17" viewBox="0 0 16 17" fill="none" xmlns="http://www.w3.org/2000/svg">
<g clip-path="url(#clip0)">
<path d="M14 11.3215V5.66076C13.9998 5.41258 13.938 5.16884 13.821 4.95398C13.704 4.73912 13.5358 4.5607 13.3333 4.43661L8.66667 1.60623C8.46397 1.48202 8.23405 1.41663 8 1.41663C7.76595 1.41663 7.53603 1.48202 7.33333 1.60623L2.66667 4.43661C2.46418 4.5607 2.29599 4.73912 2.17897 4.95398C2.06196 5.16884 2.00024 5.41258 2 5.66076V11.3215C2.00024 11.5697 2.06196 11.8134 2.17897 12.0283C2.29599 12.2432 2.46418 12.4216 2.66667 12.5457L7.33333 15.3761C7.53603 15.5003 7.76595 15.5657 8 15.5657C8.23405 15.5657 8.46397 15.5003 8.66667 15.3761L13.3333 12.5457C13.5358 12.4216 13.704 12.2432 13.821 12.0283C13.938 11.8134 13.9998 11.5697 14 11.3215Z" stroke="white" stroke-width="1.5" stroke-linecap="round" stroke-linejoin="round"/>
<path d="M2.17993 4.92487L7.99993 8.49823L13.8199 4.92487" stroke="white" stroke-width="1.5" stroke-linecap="round" stroke-linejoin="round"/>
<path d="M8 15.6237V8.49115" stroke="white" stroke-width="1.5" stroke-linecap="round" stroke-linejoin="round"/>
</g>
<defs>
<clipPath id="clip0">
<rect width="16" height="16.9823" fill="white"/>
</clipPath>
</defs>
</svg>
