<svg width="25" height="18" viewBox="0 0 25 18" fill="none" xmlns="http://www.w3.org/2000/svg">
<path d="M14 15.5H3.5C3.10218 15.5 2.72064 15.342 2.43934 15.0607C2.15804 14.7794 2 14.3978 2 14V3.5C2 3.10218 2.15804 2.72064 2.43934 2.43934C2.72064 2.15804 3.10218 2 3.5 2H11.75L15.5 5.75V14C15.5 14.3978 15.342 14.7794 15.0607 15.0607C14.7794 15.342 14.3978 15.5 14 15.5Z" stroke="#252836" stroke-width="1.5" stroke-linecap="round" stroke-linejoin="round"/>
<path d="M12.5 15.5V9.5H5V15.5" stroke="#252836" stroke-width="1.5" stroke-linecap="round" stroke-linejoin="round"/>
<path d="M5 2V5.75H11" stroke="#252836" stroke-width="1.5" stroke-linecap="round" stroke-linejoin="round"/>
<path d="M25 9.5C25 10.3284 24.3284 11 23.5 11C22.6716 11 22 10.3284 22 9.5C22 8.67157 22.6716 8 23.5 8C24.3284 8 25 8.67157 25 9.5Z" fill="#252836"/>
</svg>
