<svg width="35" height="18" viewBox="0 0 35 18" fill="none" xmlns="http://www.w3.org/2000/svg">
<path d="M15 15.75V14.25C15 13.4544 14.6839 12.6913 14.1213 12.1287C13.5587 11.5661 12.7956 11.25 12 11.25H6C5.20435 11.25 4.44129 11.5661 3.87868 12.1287C3.31607 12.6913 3 13.4544 3 14.25V15.75" stroke="#38C7BD" stroke-width="1.5" stroke-linecap="round" stroke-linejoin="round"/>
<path d="M9 8.25C10.6569 8.25 12 6.90685 12 5.25C12 3.59315 10.6569 2.25 9 2.25C7.34315 2.25 6 3.59315 6 5.25C6 6.90685 7.34315 8.25 9 8.25Z" stroke="#38C7BD" stroke-width="1.5" stroke-linecap="round" stroke-linejoin="round"/>
<path d="M25 9.5C25 10.3284 24.3284 11 23.5 11C22.6716 11 22 10.3284 22 9.5C22 8.67157 22.6716 8 23.5 8C24.3284 8 25 8.67157 25 9.5Z" fill="#38C7BD"/>
<path d="M30 9.5C30 10.3284 29.3284 11 28.5 11C27.6716 11 27 10.3284 27 9.5C27 8.67157 27.6716 8 28.5 8C29.3284 8 30 8.67157 30 9.5Z" fill="#38C7BD"/>
<path d="M35 9.5C35 10.3284 34.3284 11 33.5 11C32.6716 11 32 10.3284 32 9.5C32 8.67157 32.6716 8 33.5 8C34.3284 8 35 8.67157 35 9.5Z" fill="#38C7BD"/>
</svg>
