<svg width="133" height="41" viewBox="0 0 133 41" fill="none" xmlns="http://www.w3.org/2000/svg">
<path d="M51.2303 27.512C52.0943 27.512 52.7583 27.272 53.2223 26.792C53.7023 26.312 53.9423 25.664 53.9423 24.848C53.9423 24.416 53.8703 24.032 53.7263 23.696C53.5823 23.36 53.3903 23.056 53.1503 22.784C52.9263 22.512 52.6623 22.264 52.3583 22.04C52.0543 21.816 51.7423 21.592 51.4223 21.368C51.0543 21.112 50.6703 20.84 50.2703 20.552C49.8703 20.264 49.5023 19.928 49.1663 19.544C48.8463 19.16 48.5823 18.712 48.3743 18.2C48.1663 17.688 48.0623 17.088 48.0623 16.4C48.0623 15.728 48.1743 15.12 48.3983 14.576C48.6383 14.032 48.9583 13.568 49.3583 13.184C49.7743 12.8 50.2623 12.504 50.8223 12.296C51.3983 12.088 52.0143 11.984 52.6703 11.984C53.3103 11.984 53.9023 12.064 54.4463 12.224C54.9903 12.384 55.4463 12.576 55.8143 12.8L55.1423 14.504C54.8063 14.28 54.4383 14.112 54.0383 14C53.6543 13.872 53.2463 13.808 52.8143 13.808C52.0303 13.808 51.3983 14.024 50.9183 14.456C50.4543 14.872 50.2223 15.488 50.2223 16.304C50.2223 16.752 50.2943 17.144 50.4383 17.48C50.5983 17.816 50.7983 18.12 51.0383 18.392C51.2943 18.664 51.5823 18.912 51.9023 19.136C52.2383 19.36 52.5903 19.592 52.9583 19.832C53.3263 20.072 53.7023 20.336 54.0863 20.624C54.4703 20.912 54.8143 21.248 55.1183 21.632C55.4383 22 55.6943 22.44 55.8863 22.952C56.0943 23.448 56.1983 24.04 56.1983 24.728C56.1983 25.352 56.1023 25.944 55.9103 26.504C55.7183 27.064 55.4143 27.56 54.9983 27.992C54.5983 28.408 54.0863 28.744 53.4623 29C52.8543 29.24 52.1343 29.36 51.3023 29.36C50.5343 29.36 49.8623 29.272 49.2863 29.096C48.7103 28.92 48.1983 28.688 47.7503 28.4L48.4223 26.672C48.8383 26.928 49.2623 27.136 49.6943 27.296C50.1423 27.44 50.6543 27.512 51.2303 27.512ZM69.8101 20.696C69.8101 21.992 69.6901 23.176 69.4501 24.248C69.2261 25.304 68.8661 26.216 68.3701 26.984C67.8901 27.736 67.2741 28.32 66.5221 28.736C65.7861 29.152 64.9141 29.36 63.9061 29.36C62.8981 29.36 62.0181 29.152 61.2661 28.736C60.5301 28.32 59.9141 27.736 59.4181 26.984C58.9381 26.216 58.5781 25.304 58.3381 24.248C58.0981 23.176 57.9781 21.992 57.9781 20.696C57.9781 19.4 58.0981 18.216 58.3381 17.144C58.5781 16.072 58.9381 15.16 59.4181 14.408C59.9141 13.64 60.5301 13.048 61.2661 12.632C62.0181 12.2 62.8981 11.984 63.9061 11.984C64.9141 11.984 65.7861 12.2 66.5221 12.632C67.2741 13.048 67.8901 13.64 68.3701 14.408C68.8661 15.16 69.2261 16.072 69.4501 17.144C69.6901 18.216 69.8101 19.4 69.8101 20.696ZM67.5061 20.696C67.5061 19.688 67.4421 18.768 67.3141 17.936C67.1861 17.104 66.9781 16.392 66.6901 15.8C66.4021 15.192 66.0261 14.72 65.5621 14.384C65.1141 14.048 64.5621 13.88 63.9061 13.88C63.2501 13.88 62.6901 14.048 62.2261 14.384C61.7781 14.72 61.4101 15.192 61.1221 15.8C60.8341 16.392 60.6181 17.104 60.4741 17.936C60.3461 18.768 60.2821 19.688 60.2821 20.696C60.2821 21.704 60.3461 22.624 60.4741 23.456C60.6181 24.288 60.8341 25 61.1221 25.592C61.4101 26.184 61.7781 26.648 62.2261 26.984C62.6901 27.304 63.2501 27.464 63.9061 27.464C64.5621 27.464 65.1141 27.304 65.5621 26.984C66.0261 26.648 66.4021 26.184 66.6901 25.592C66.9781 25 67.1861 24.288 67.3141 23.456C67.4421 22.624 67.5061 21.704 67.5061 20.696ZM80.2373 27.152V29H72.8213V12.368H74.9813V27.152H80.2373ZM84.0578 29C83.6898 27.8 83.3218 26.592 82.9538 25.376C82.5858 24.144 82.2178 22.856 81.8498 21.512C81.4978 20.168 81.1458 18.752 80.7938 17.264C80.4418 15.76 80.0898 14.128 79.7378 12.368H81.9938C82.2018 13.6 82.4338 14.84 82.6898 16.088C82.9458 17.32 83.2178 18.536 83.5058 19.736C83.7938 20.936 84.0818 22.104 84.3698 23.24C84.6738 24.36 84.9698 25.424 85.2578 26.432C85.5458 25.424 85.8338 24.36 86.1218 23.24C86.4258 22.104 86.7218 20.936 87.0098 19.736C87.2978 18.536 87.5698 17.32 87.8258 16.088C88.0818 14.84 88.3138 13.6 88.5218 12.368H90.7058C90.3538 14.128 90.0018 15.76 89.6498 17.264C89.2978 18.752 88.9378 20.168 88.5698 21.512C88.2178 22.856 87.8578 24.144 87.4898 25.376C87.1218 26.592 86.7538 27.8 86.3858 29H84.0578ZM92.8435 12.368H95.0035V29H92.8435V12.368ZM106.831 29C106.447 28.056 106.007 27.04 105.511 25.952C105.031 24.848 104.519 23.744 103.975 22.64C103.447 21.52 102.903 20.416 102.343 19.328C101.783 18.224 101.231 17.2 100.687 16.256V29H98.671V12.368H100.471C101.079 13.36 101.663 14.376 102.223 15.416C102.799 16.456 103.343 17.488 103.855 18.512C104.367 19.52 104.847 20.52 105.295 21.512C105.759 22.488 106.183 23.416 106.567 24.296V12.368H108.583V29H106.831ZM111.56 20.672C111.56 19.104 111.704 17.768 111.992 16.664C112.28 15.56 112.688 14.664 113.216 13.976C113.76 13.272 114.408 12.768 115.16 12.464C115.928 12.144 116.784 11.984 117.728 11.984C118.448 11.984 119.104 12.088 119.696 12.296C120.288 12.488 120.768 12.712 121.136 12.968L120.464 14.768C120.096 14.512 119.696 14.304 119.264 14.144C118.832 13.968 118.336 13.88 117.776 13.88C116.384 13.88 115.384 14.448 114.776 15.584C114.168 16.704 113.864 18.4 113.864 20.672C113.864 21.888 113.952 22.928 114.128 23.792C114.32 24.656 114.584 25.36 114.92 25.904C115.256 26.448 115.664 26.848 116.144 27.104C116.624 27.36 117.16 27.488 117.752 27.488C118.248 27.488 118.672 27.432 119.024 27.32V20.816H121.184V28.64C120.752 28.848 120.216 29.024 119.576 29.168C118.936 29.312 118.264 29.384 117.56 29.384C116.696 29.384 115.896 29.216 115.16 28.88C114.424 28.528 113.784 28 113.24 27.296C112.712 26.576 112.296 25.672 111.992 24.584C111.704 23.48 111.56 22.176 111.56 20.672Z" fill="white"/>
<path d="M2.89805 9.052H8.51405V34H2.89805V9.052ZM32.2527 9.052V13.84H24.7287V34H19.1127V13.84H11.5887V9.052H32.2527Z" fill="#70D6BC"/>
<path d="M32.9426 19.3425C33.8063 19.3763 34.6248 19.5033 35.3981 19.7234C35.9983 19.8943 36.5193 20.1238 36.9614 20.4118C37.4182 20.6916 37.7754 21.0366 38.0329 21.4468C38.3053 21.8488 38.4647 22.3184 38.5114 22.8557C38.5696 23.3963 38.5018 24.0071 38.3079 24.688C38.1107 25.3805 37.8434 25.9469 37.5059 26.3873C37.1717 26.8162 36.7813 27.1355 36.3348 27.3453C35.8916 27.5435 35.3964 27.6395 34.8491 27.6335C34.3134 27.6307 33.7397 27.5422 33.128 27.368L32.4009 27.161L31.1342 31.6102L29.5761 31.1666L32.9426 19.3425ZM32.7903 25.7934L33.4135 25.9708C33.8059 26.0825 34.1695 26.1423 34.5041 26.1503C34.8535 26.15 35.1658 26.0829 35.441 25.9491C35.7161 25.8154 35.9557 25.6091 36.1599 25.3304C36.364 25.0516 36.5318 24.6814 36.6632 24.2197C36.7947 23.7581 36.8471 23.355 36.8204 23.0105C36.797 22.6545 36.7077 22.3546 36.5525 22.1108C36.4122 21.8587 36.2092 21.6512 35.9437 21.4883C35.6782 21.3254 35.3723 21.1946 35.026 21.096C34.726 21.0106 34.444 20.949 34.1803 20.9114L32.7903 25.7934ZM37.8983 32.6751C37.8228 32.9406 37.6573 33.1493 37.402 33.3011C37.1581 33.4563 36.8804 33.4895 36.5688 33.4008C36.2572 33.3121 36.0386 33.1376 35.9131 32.8772C35.7876 32.6169 35.7626 32.354 35.8382 32.0886C35.9171 31.8116 36.0784 31.5955 36.3222 31.4403C36.566 31.2852 36.8437 31.252 37.1554 31.3407C37.467 31.4294 37.6855 31.6039 37.8111 31.8642C37.9481 32.1278 37.9772 32.3981 37.8983 32.6751Z" fill="#38C7BD"/>
<path d="M121 3V7" stroke="#70D6BC" stroke-width="2" stroke-linecap="round" stroke-linejoin="round"/>
<path d="M127 13H131" stroke="#70D6BC" stroke-width="2" stroke-linecap="round" stroke-linejoin="round"/>
<path d="M125.24 8.75999L128.07 5.92999" stroke="#70D6BC" stroke-width="2" stroke-linecap="round" stroke-linejoin="round"/>
</svg>
